# xmcd
#
# Track frame offsets: 
#        150
#        13973
#        33256
#        47942
#        67189
#        84703
#        101261
#        115933
#        131035
#        154932
#        170158
#        188185
#
# Disc length: 2700 seconds
#
# Revision: 0
# Processed by: cddbd v1.5.2PL0 Copyright (c) Steve Scherf et al.
# Submitted via: ExactAudioCopy v0.95b4
#
DISCID=ab0a8a0c
DTITLE=Brandon McDermott Band - Mile Marker Zero
DYEAR=2010
DGENRE=Country
TTITLE0=Out There
TTITLE1=Lookin' For Me
TTITLE2=Hit You
TTITLE3=Been Here Before
TTITLE4=When You Were Mine
TTITLE5=Lonely Girl
TTITLE6=Forbidden Love
TTITLE7=Meant For Me
TTITLE8=Last Song
TTITLE9=Carolina Gypsy
TTITLE10=Same Ol' Love Song
TTITLE11=Date Her
EXTD=
EXTT0=
EXTT1=
EXTT2=
EXTT3=
EXTT4=
EXTT5=
EXTT6=
EXTT7=
EXTT8=
EXTT9=
EXTT10=
EXTT11=
PLAYORDER=
